15_US_stride5.mot
nRows=167
nColumns=3

name 15_US_stride5.mot
datacolumns 3
datarows 167
range 2.860000 3.690000
endheader
time	soleus_l	med_gas_l
        2.8600000000	       28.8928543015	       31.5296193736	
        2.8650000000	       28.8131580213	       31.4023056911	
        2.8700000000	       28.7726860319	       31.2241779073	
        2.8750000000	       28.7945469776	       30.9911204057	
        2.8800000000	       28.8386848759	       30.6957264188	
        2.8850000000	       28.8758848642	       30.3536430150	
        2.8900000000	       28.8858085465	       30.0434968202	
        2.8950000000	       28.8725238423	       29.8138234154	
        2.9000000000	       28.8382468766	       29.5657966257	
        2.9050000000	       28.7937042219	       29.3686963937	
        2.9100000000	       28.7763944906	       29.2371646278	
        2.9150000000	       28.7773927350	       29.1477230098	
        2.9200000000	       28.7994740962	       29.0855844962	
        2.9250000000	       28.8190447194	       28.9868913544	
        2.9300000000	       28.8192195557	       28.8231337926	
        2.9350000000	       28.7568150813	       28.5997555180	
        2.9400000000	       28.6268762504	       28.3361513137	
        2.9450000000	       28.4548925102	       28.0698730642	
        2.9500000000	       28.3169392093	       27.8932163372	
        2.9550000000	       28.2064216573	       27.7786204469	
        2.9600000000	       28.1131738475	       27.7089934383	
        2.9650000000	       28.1050796083	       27.7402597944	
        2.9700000000	       28.1431351055	       27.8238318141	
        2.9750000000	       28.2332172609	       27.9261740075	
        2.9800000000	       28.3256086357	       27.9833785188	
        2.9850000000	       28.3969451586	       27.9994246109	
        2.9900000000	       28.4614718878	       27.9612402697	
        2.9950000000	       28.4950177371	       27.8803584948	
        3.0000000000	       28.4988355910	       27.7868282495	
        3.0050000000	       28.4841172313	       27.7107645232	
        3.0100000000	       28.4490096395	       27.6620265824	
        3.0150000000	       28.4131205934	       27.6389403052	
        3.0200000000	       28.3591062331	       27.6032528390	
        3.0250000000	       28.2778503830	       27.5284808807	
        3.0300000000	       28.1774474377	       27.3803391856	
        3.0350000000	       28.0424113518	       27.1257913657	
        3.0400000000	       27.8663696534	       26.7802951937	
        3.0450000000	       27.6913148298	       26.4670422818	
        3.0500000000	       27.4967162731	       26.1717698562	
        3.0550000000	       27.1886283568	       25.8188376661	
        3.0600000000	       26.8286370316	       25.5586966867	
        3.0650000000	       26.4316878289	       25.4139938584	
        3.0700000000	       26.0835451858	       25.3644834065	
        3.0750000000	       25.7929050306	       25.3494088302	
        3.0800000000	       25.4085638800	       25.3399121395	
        3.0850000000	       25.0612410328	       25.3112072975	
        3.0900000000	       24.7841067724	       25.2469914660	
        3.0950000000	       24.5676793160	       25.1526317034	
        3.1000000000	       24.4026140488	       25.0550432904	
        3.1050000000	       24.2983286131	       24.9957229989	
        3.1100000000	       24.1604749091	       24.9547123184	
        3.1150000000	       23.9497074377	       24.9387834379	
        3.1200000000	       23.6578328555	       24.9391506608	
        3.1250000000	       23.2790973078	       24.9347623661	
        3.1300000000	       22.8108533727	       24.9006085588	
        3.1350000000	       22.4275151700	       24.8446120087	
        3.1400000000	       22.0903314925	       24.7682595386	
        3.1450000000	       21.6965283558	       24.6422565117	
        3.1500000000	       21.4290296109	       24.5193073730	
        3.1550000000	       21.3629133459	       24.4340146199	
        3.1600000000	       21.4039245847	       24.4239220988	
        3.1650000000	       21.6179633829	       24.4823504211	
        3.1700000000	       21.8530036751	       24.6055088476	
        3.1750000000	       22.2020436614	       24.8298086091	
        3.1800000000	       22.5917451356	       25.1418871562	
        3.1850000000	       22.9211872876	       25.4682916681	
        3.1900000000	       23.1611151918	       25.7606694968	
        3.1950000000	       23.2775681105	       25.9359557924	
        3.2000000000	       23.3433195739	       26.0696506632	
        3.2050000000	       23.3714616591	       26.1276990823	
        3.2100000000	       23.3795528300	       26.1278118364	
        3.2150000000	       23.4102218177	       26.0656969926	
        3.2200000000	       23.4881821567	       25.9872498478	
        3.2250000000	       23.5873552557	       25.9237567262	
        3.2300000000	       23.7088870710	       25.8659999103	
        3.2350000000	       23.8951394285	       25.7911791438	
        3.2400000000	       24.1045003341	       25.7061918120	
        3.2450000000	       24.3416343702	       25.6074095922	
        3.2500000000	       24.6152754182	       25.5055494139	
        3.2550000000	       24.9032922890	       25.4339294593	
        3.2600000000	       25.1612521592	       25.4004481934	
        3.2650000000	       25.5302942331	       25.4203439142	
        3.2700000000	       25.9694482939	       25.5101516839	
        3.2750000000	       26.4111830232	       25.6892503095	
        3.2800000000	       26.8425510207	       25.9331334658	
        3.2850000000	       27.2637372987	       26.2285786332	
        3.2900000000	       27.5698467192	       26.4709513332	
        3.2950000000	       27.8796759280	       26.7322672782	
        3.3000000000	       28.2610662187	       27.0623943099	
        3.3050000000	       28.6241079341	       27.3705311642	
        3.3100000000	       29.0047239158	       27.6749225347	
        3.3150000000	       29.2929479785	       27.8861911761	
        3.3200000000	       29.5478987662	       28.0536668213	
        3.3250000000	       29.8704402118	       28.2332788158	
        3.3300000000	       30.2125176013	       28.3719429376	
        3.3350000000	       30.5519846715	       28.4562896293	
        3.3400000000	       30.8937886193	       28.5029858467	
        3.3450000000	       31.1999588605	       28.5325179791	
        3.3500000000	       31.4257757142	       28.5569986051	
        3.3550000000	       31.6674439260	       28.6145287661	
        3.3600000000	       31.8487958177	       28.7339682325	
        3.3650000000	       31.9080030490	       28.9338429314	
        3.3700000000	       31.8836454311	       29.2078529168	
        3.3750000000	       31.7658876758	       29.5301212157	
        3.3800000000	       31.6511455674	       29.7880226269	
        3.3850000000	       31.5336992611	       30.0306844609	
        3.3900000000	       31.4257068445	       30.2583399166	
        3.3950000000	       31.3842213721	       30.3711444173	
        3.4000000000	       31.4128366498	       30.3504350930	
        3.4050000000	       31.4812575806	       30.2621477584	
        3.4100000000	       31.5504730210	       30.1407040332	
        3.4150000000	       31.5932564590	       30.0396707862	
        3.4200000000	       31.5857391930	       29.9409338721	
        3.4250000000	       31.5171868037	       29.9345207462	
        3.4300000000	       31.3393754989	       29.9760844266	
        3.4350000000	       31.0618705892	       30.1115509899	
        3.4400000000	       30.7275832036	       30.2789352107	
        3.4450000000	       30.4531403314	       30.4101478186	
        3.4500000000	       30.1348261057	       30.5448184220	
        3.4550000000	       29.7937914466	       30.6471118932	
        3.4600000000	       29.5291829125	       30.6801357821	
        3.4650000000	       29.3466441407	       30.6170645635	
        3.4700000000	       29.2623730677	       30.5195841936	
        3.4750000000	       29.2124641452	       30.3738557645	
        3.4800000000	       29.1838577914	       30.1603906737	
        3.4850000000	       29.1762683413	       29.9587949773	
        3.4900000000	       29.1781710588	       29.8042530471	
        3.4950000000	       29.1879654611	       29.7264681816	
        3.5000000000	       29.2090407272	       29.7160112334	
        3.5050000000	       29.2420029315	       29.7458959944	
        3.5100000000	       29.3121900052	       29.8210131558	
        3.5150000000	       29.4206484929	       29.9223558833	
        3.5200000000	       29.5618478354	       30.0235902590	
        3.5250000000	       29.7311035121	       30.1136605700	
        3.5300000000	       29.9144328654	       30.1872217493	
        3.5350000000	       30.0527565904	       30.2323979357	
        3.5400000000	       30.2162163258	       30.2846978676	
        3.5450000000	       30.4004373457	       30.3534343666	
        3.5500000000	       30.5602274084	       30.4435094139	
        3.5550000000	       30.6946582731	       30.5831817436	
        3.5600000000	       30.7817142941	       30.7933112235	
        3.5650000000	       30.7884474567	       31.0189346265	
        3.5700000000	       30.7745178072	       31.2771554670	
        3.5750000000	       30.6682097034	       31.6810870085	
        3.5800000000	       30.4893010309	       32.1303745218	
        3.5850000000	       30.2454231479	       32.5826341196	
        3.5900000000	       30.0065138895	       32.9289096763	
        3.5950000000	       29.7967423415	       33.1752817451	
        3.6000000000	       29.5218612473	       33.4289467651	
        3.6050000000	       29.2614076061	       33.6107440959	
        3.6100000000	       29.0342992683	       33.7424315792	
        3.6150000000	       28.8423048578	       33.8561885709	
        3.6200000000	       28.6937872446	       33.9688886911	
        3.6250000000	       28.6033718983	       34.0615206596	
        3.6300000000	       28.5176668693	       34.1724839254	
        3.6350000000	       28.4484422178	       34.2819360582	
        3.6400000000	       28.4188500322	       34.3346535904	
        3.6450000000	       28.4308236931	       34.3110168402	
        3.6500000000	       28.4854016023	       34.2072954078	
        3.6550000000	       28.5582209495	       34.0755149993	
        3.6600000000	       28.6456039294	       33.9271348410	
        3.6650000000	       28.7787083414	       33.7212014969	
        3.6700000000	       28.9073674513	       33.5418766406	
        3.6750000000	       29.0131536079	       33.3949472568	
        3.6800000000	       29.0800574784	       33.2579434905	
        3.6850000000	       29.1019628095	       33.1176913333	
        3.6900000000	       29.0909566303	       32.9777684988	
